Coordinates
version=1
nRows=14
nColumns=20
inDegrees=yes

Units are S.I. units (second, meters, Newtons, ...)
Angles are in degrees.

endheader
time	pelvis_tilt	pelvis_list	pelvis_rotation	pelvis_tx	pelvis_ty	pelvis_tz	hip_flexion_r	hip_adduction_r	hip_rotation_r	knee_angle_r	ankle_angle_r	hip_flexion_l	hip_adduction_l	hip_rotation_l	knee_angle_l	ankle_angle_l	lumbar_extension	lumbar_bending	lumbar_rotation
      0.61700000	      3.86742634	      2.67587487	      1.00733745	      0.58554856	      1.00899135	     -0.01428655	     19.12343282	     -4.91803491	     -4.93179003	     -0.85431431	      1.67868691	    -21.24232635	      4.67356069	      2.86195579	     -3.58599226	     11.58485650	    -16.54985019	     -3.57446708	     -5.97343477
      0.63300000	      3.82390039	      2.63555892	      1.54535750	      0.58650661	      1.00743486	     -0.01188876	     19.83944821	     -4.84071729	     -5.28573258	     -3.59891887	      1.03964651	    -21.61668945	      4.16618305	      3.55437336	     -5.15587653	     12.06903416	    -16.50951502	     -3.22274427	     -6.27341671
      0.65000000	      3.69551566	      2.48508616	      2.03386959	      0.58799420	      1.00616245	     -0.00888521	     20.65625210	     -4.64776853	     -5.74531769	     -6.80641395	      0.03365164	    -21.78656138	      3.55295215	      4.20842766	     -6.94776949	     12.37921881	    -16.28955874	     -2.83035846	     -6.64450548
      0.66700000	      3.55833152	      2.42473519	      2.42250138	      0.58994688	      1.00558099	     -0.00637014	     21.35882416	     -4.59646376	     -6.03264268	     -9.99911033	     -1.06602763	    -21.73273590	      3.14843346	      4.83645670	     -9.16607283	     12.37902335	    -16.01210396	     -2.33522381	     -6.82403325
      0.68300000	      3.63702269	      2.37861879	      2.54579518	      0.59162390	      1.00574881	     -0.00354635	     21.97839976	     -4.50692257	     -5.98634201	    -13.56611917	     -1.67673254	    -21.54243838	      2.89054621	      5.22545858	    -12.03764317	     12.09492900	    -15.92019946	     -1.86710937	     -6.71435331
      0.70000000	      3.91276064	      2.10588775	      2.84734011	      0.59501723	      1.00702457	     -0.00114479	     22.02360963	     -4.26303720	     -6.07930613	    -16.83484157	     -1.70757707	    -21.28078936	      2.36692145	      5.59754186	    -15.49195936	     11.29787112	    -16.03991197	     -1.17025715	     -6.81784341
      0.71700000	      4.19243047	      1.84364666	      3.06887278	      0.59806643	      1.00880747	      0.00128224	     21.58531135	     -3.98817793	     -6.13702413	    -19.18778591	     -1.58544108	    -20.41104996	      1.93029942	      5.67645629	    -19.92937475	     10.03181828	    -16.04346405	     -0.36646280	     -6.94036813
      0.73300000	      4.30239371	      1.69952631	      3.23395099	      0.60030198	      1.01037259	      0.00434775	     21.22954268	     -3.78521165	     -6.19799348	    -21.30603018	     -1.13552033	    -18.41077276	      1.64553796	      5.36061580	    -25.88847067	      8.27479984	    -15.95174223	      0.10306043	     -6.79626282
      0.75000000	      4.39313337	      1.42328794	      3.30771019	      0.60294852	      1.01229668	      0.00745868	     20.44735317	     -3.39236874	     -6.40111313	    -22.64941287	     -0.45079361	    -15.98803220	      1.14481531	      4.41332044	    -32.17789133	      5.49043845	    -15.78826312	      0.66141271	     -6.99728741
      0.76700000	      4.31873903	      1.07978254	      3.41023947	      0.60488030	      1.01405890	      0.01043046	     19.67365894	     -2.90249154	     -6.61344837	    -23.62986244	      0.54264464	    -12.81588090	      0.35744117	      2.94999086	    -38.91019108	      1.86490970	    -15.54446985	      1.28975357	     -6.66639675
      0.78300000	      4.25686577	      0.50691260	      3.49430619	      0.60544782	      1.01583508	      0.01393426	     18.63890314	     -2.07944976	     -6.91586688	    -23.91811003	      1.45577657	     -9.39188147	     -0.94577817	      1.23108464	    -45.40728951	     -2.03618985	    -15.39428652	      2.01733688	     -6.27502558
      0.80000000	      4.28133998	     -0.26186279	      3.39573488	      0.60598670	      1.01761920	      0.01764217	     17.47320030	     -0.94653985	     -7.02553555	    -24.06928056	      2.52821231	     -6.08384960	     -2.68687798	     -0.69921497	    -51.34509361	     -5.42521909	    -15.30007220	      2.91208569	     -5.47523110
      0.81700000	      4.36359561	     -1.07705603	      3.45855944	      0.60623437	      1.02001017	      0.02146924	     15.88568903	      0.25509433	     -7.28897955	    -23.46193664	      3.36456514	     -3.07087784	     -4.53452139	     -2.03542450	    -56.33786799	     -7.40158972	    -15.13535964	      3.76022175	     -5.35352274
      0.83300000	      4.46540460	     -1.55192269	      3.46343209	      0.60602319	      1.02278277	      0.02488461	     14.28427191	      1.11125131	     -7.32732202	    -22.83390052	      4.18535855	     -0.26246029	     -5.86837075	     -2.97841745	    -60.51404503	     -7.78389202	    -15.15907430	      4.23915422	     -4.58950059
